<svg width="20" height="20" viewBox="0 0 20 20" fill="none" xmlns="http://www.w3.org/2000/svg">
<path d="M19.1364 7.41964C19.0788 7.24983 18.9727 7.10061 18.8312 6.99043C18.6897 6.88024 18.519 6.81389 18.3403 6.79959L13.1111 6.38408L10.8483 1.37506C10.7762 1.21373 10.659 1.07671 10.5108 0.980522C10.3626 0.884337 10.1897 0.833105 10.013 0.833008C9.8363 0.832911 9.66336 0.883954 9.51503 0.979976C9.3667 1.076 9.24934 1.2129 9.1771 1.37415L6.91428 6.38408L1.68513 6.79959C1.50944 6.8135 1.34148 6.87774 1.20134 6.98462C1.0612 7.0915 0.95482 7.23648 0.894925 7.40224C0.83503 7.56799 0.824156 7.74749 0.863603 7.91926C0.903051 8.09103 0.99115 8.2478 1.11736 8.37081L4.98167 12.1379L3.61499 18.0559C3.57349 18.235 3.58679 18.4225 3.65316 18.594C3.71954 18.7655 3.83592 18.913 3.9872 19.0175C4.13849 19.1221 4.3177 19.1787 4.50157 19.1801C4.68545 19.1815 4.8655 19.1276 5.01836 19.0254L10.0127 15.6958L15.007 19.0254C15.1633 19.1291 15.3475 19.1825 15.535 19.1784C15.7225 19.1743 15.9043 19.1129 16.0558 19.0024C16.2073 18.8919 16.3214 18.7377 16.3827 18.5604C16.4439 18.3832 16.4495 18.1914 16.3985 18.0109L14.7209 12.1406L18.8814 8.39649C19.1539 8.15067 19.2538 7.76727 19.1364 7.41964Z" fill="#0043BC"/>
</svg>
