<svg width="104" height="24" viewBox="0 0 104 24" fill="none" xmlns="http://www.w3.org/2000/svg">
<path d="M102.54 6.42002C102.421 5.94543 102.179 5.51059 101.839 5.15942C101.498 4.80826 101.071 4.5532 100.6 4.42002C98.88 4.00002 92 4.00002 92 4.00002C92 4.00002 85.12 4.00002 83.4 4.46002C82.9293 4.5932 82.502 4.84826 82.1614 5.19942C81.8207 5.55059 81.5788 5.98543 81.46 6.46002C81.1452 8.20557 80.9913 9.97633 81 11.75C80.9888 13.5371 81.1428 15.3213 81.46 17.08C81.591 17.5399 81.8383 17.9582 82.1782 18.2945C82.518 18.6308 82.9388 18.8738 83.4 19C85.12 19.46 92 19.46 92 19.46C92 19.46 98.88 19.46 100.6 19C101.071 18.8668 101.498 18.6118 101.839 18.2606C102.179 17.9094 102.421 17.4746 102.54 17C102.852 15.2676 103.006 13.5103 103 11.75C103.011 9.96297 102.857 8.17871 102.54 6.42002Z" stroke="#0043BC" stroke-width="2" stroke-linecap="round" stroke-linejoin="round"/>
<path d="M89.75 15.02L95.5 11.75L89.75 8.48V15.02Z" stroke="#0043BC" stroke-width="2" stroke-linecap="round" stroke-linejoin="round"/>
<path d="M58 1.99998H55C53.6739 1.99998 52.4021 2.52677 51.4645 3.46445C50.5268 4.40213 50 5.6739 50 6.99998V9.99998H47V14H50V22H54V14H57L58 9.99998H54V6.99998C54 6.73477 54.1054 6.48041 54.2929 6.29288C54.4804 6.10534 54.7348 5.99998 55 5.99998H58V1.99998Z" stroke="#0043BC" stroke-width="2" stroke-linecap="round" stroke-linejoin="round"/>
<path d="M17 1.99998H7C4.23858 1.99998 2 4.23856 2 6.99998V17C2 19.7614 4.23858 22 7 22H17C19.7614 22 22 19.7614 22 17V6.99998C22 4.23856 19.7614 1.99998 17 1.99998Z" stroke="#0043BC" stroke-width="2" stroke-linecap="round" stroke-linejoin="round"/>
<path d="M16 11.37C16.1234 12.2023 15.9813 13.0523 15.5938 13.7991C15.2063 14.5459 14.5932 15.1515 13.8416 15.5297C13.0901 15.908 12.2385 16.0396 11.4078 15.906C10.5771 15.7723 9.80977 15.3801 9.21485 14.7852C8.61993 14.1903 8.22774 13.4229 8.09408 12.5923C7.96042 11.7616 8.09208 10.9099 8.47034 10.1584C8.8486 9.4069 9.4542 8.79378 10.201 8.40628C10.9478 8.01878 11.7978 7.87663 12.63 8.00004C13.4789 8.12593 14.2649 8.52151 14.8717 9.12835C15.4785 9.73519 15.8741 10.5211 16 11.37Z" stroke="#0043BC" stroke-width="2" stroke-linecap="round" stroke-linejoin="round"/>
<path d="M17.5 6.49998H17.51" stroke="#0043BC" stroke-width="2" stroke-linecap="round" stroke-linejoin="round"/>
</svg>
